<?xml version="1.0" encoding="UTF-8" standalone="no"?><!-- Generator: Gravit.io --><svg xmlns="http://www.w3.org/2000/svg" xmlns:xlink="http://www.w3.org/1999/xlink" style="isolation:isolate" viewBox="80 32 1080 32" width="1080pt" height="32pt"><rect x="80" y="32" width="1080" height="32" transform="matrix(1,0,0,1,0,0)" fill="rgb(11,10,10)"/><clipPath id="_clipPath_HmJYJ9qsKEkmvq6KNRT1tOniTP06SCcw"><rect x="80" y="32" width="1080" height="32" transform="matrix(1,0,0,1,0,0)" fill="rgb(11,10,10)"/></clipPath><g clip-path="url(#_clipPath_HmJYJ9qsKEkmvq6KNRT1tOniTP06SCcw)"><circle vector-effect="non-scaling-stroke" cx="1075" cy="48" r="11" fill="rgb(52,150,255)"/><clipPath id="_clipPath_NwEhcuViO2dbfmxtVdpBRYrQIV5V2MfS"><circle vector-effect="non-scaling-stroke" cx="1075" cy="48" r="11" fill="rgb(52,150,255)"/></clipPath><g clip-path="url(#_clipPath_NwEhcuViO2dbfmxtVdpBRYrQIV5V2MfS)"><rect x="1069" y="47" width="12" height="2" transform="matrix(1,0,0,1,0,0)" fill="rgb(235,235,235)"/></g><circle vector-effect="non-scaling-stroke" cx="1109" cy="48" r="11" fill="rgb(255,255,0)"/><clipPath id="_clipPath_F8PGAR196M19G88b7hjQZNarHlOucAkE"><circle vector-effect="non-scaling-stroke" cx="1109" cy="48" r="11" fill="rgb(255,255,0)"/></clipPath><g clip-path="url(#_clipPath_F8PGAR196M19G88b7hjQZNarHlOucAkE)"><path d=" M 1104.125 43.875 L 1104.125 46.682 C 1104.122 46.852 1104.22 47.008 1104.383 47.093 C 1104.544 47.179 1104.745 47.179 1104.907 47.093 C 1105.069 47.008 1105.167 46.851 1105.164 46.682 L 1105.164 44.81 L 1107.243 44.81 C 1107.431 44.813 1107.605 44.724 1107.699 44.578 C 1107.795 44.433 1107.795 44.252 1107.699 44.107 C 1107.605 43.961 1107.431 43.872 1107.243 43.875 L 1104.125 43.875 Z  M 1110.881 43.875 C 1110.696 43.869 1110.521 43.952 1110.422 44.094 C 1110.324 44.236 1110.317 44.415 1110.404 44.562 C 1110.491 44.71 1110.659 44.805 1110.845 44.81 L 1112.96 44.81 L 1112.96 46.682 C 1112.956 46.928 1113.164 47.134 1113.436 47.155 C 1113.453 47.157 1113.47 47.157 1113.488 47.157 C 1113.626 47.155 1113.757 47.104 1113.853 47.015 C 1113.949 46.926 1114.002 46.806 1114 46.682 L 1114 43.875 L 1110.881 43.875 Z  M 1104.637 49.718 C 1104.499 49.72 1104.368 49.771 1104.272 49.86 C 1104.176 49.948 1104.123 50.068 1104.125 50.192 L 1104.125 53 L 1107.243 53 C 1107.26 53 1107.278 53 1107.295 52.998 C 1107.573 52.976 1107.781 52.76 1107.767 52.509 C 1107.754 52.258 1107.522 52.061 1107.243 52.064 L 1105.164 52.064 L 1105.164 50.192 C 1105.166 50.066 1105.111 49.944 1105.012 49.855 C 1104.912 49.765 1104.777 49.716 1104.637 49.718 Z  M 1113.472 49.718 C 1113.334 49.72 1113.203 49.771 1113.107 49.86 C 1113.011 49.948 1112.958 50.068 1112.96 50.192 L 1112.96 52.064 L 1110.881 52.064 C 1110.694 52.061 1110.52 52.15 1110.426 52.296 C 1110.33 52.442 1110.33 52.622 1110.426 52.768 C 1110.52 52.914 1110.694 53.003 1110.881 53 L 1114 53 L 1114 50.192 C 1114.002 50.066 1113.947 49.944 1113.847 49.855 C 1113.748 49.765 1113.613 49.716 1113.472 49.718 Z " fill="rgb(255,255,255)" vector-effect="non-scaling-stroke" stroke-width="1" stroke="rgb(255,255,255)" stroke-linejoin="miter" stroke-linecap="butt" stroke-miterlimit="4"/></g><circle vector-effect="non-scaling-stroke" cx="1139" cy="48" r="11" fill="rgb(244,67,54)"/><clipPath id="_clipPath_buKPBpGYEksG9SSy1K665V9nKnuFzQkI"><circle vector-effect="non-scaling-stroke" cx="1139" cy="48" r="11" fill="rgb(244,67,54)"/></clipPath><g clip-path="url(#_clipPath_buKPBpGYEksG9SSy1K665V9nKnuFzQkI)"><g><path d=" M 1147.5 54.5 C 1147.5 55.881 1146.443 57 1145.139 57 L 1132.861 57 C 1131.557 57 1130.5 55.881 1130.5 54.5 L 1130.5 41.5 C 1130.5 40.119 1131.557 39 1132.861 39 L 1145.139 39 C 1146.443 39 1147.5 40.119 1147.5 41.5 L 1147.5 54.5 Z " fill="rgb(244,67,54)"/><path d=" M 1135.613 53 L 1134.278 51.586 L 1142.306 43.086 L 1143.641 44.5 L 1135.613 53 Z " fill="rgb(255,235,238)"/><path d=" M 1143.733 51.473 L 1142.398 52.887 L 1134.327 44.34 L 1135.663 42.926 L 1143.733 51.473 Z " fill="rgb(255,235,238)"/></g></g></g></svg>